<svg width="305" height="117" viewBox="0 0 305 117" fill="none" xmlns="http://www.w3.org/2000/svg">
<path d="M1.44165 88.7643C7.60832 80.4931 26.2416 60.3135 51.4417 45.7643L41.4417 25.7643C56.275 18.5976 89.9417 3.76426 125.942 1.76426C161.942 -0.235736 166.942 0.424939 179.442 1.76426C193.442 3.26426 222.042 8.46428 264.442 27.2643L253.942 45.2643C264.608 52.0976 289.342 70.6643 302.942 90.2643C296.775 87.9309 280.842 83.2643 266.442 83.2643C267.608 91.9309 269.942 110.264 269.942 114.264C258.775 102.764 231.142 78.3643 209.942 72.7643L244.442 62.2643C233.942 55.7643 201.842 42.3643 157.442 40.7643C113.042 39.1643 74.275 54.4309 60.4417 62.2643L93.4417 73.0683C79.9417 79.235 49.7416 95.9643 34.9417 114.764L37.9417 82.2643C28.775 83.2643 8.64165 85.9642 1.44165 88.7643Z" fill="#C7B1E7"/>
<path d="M51.4417 45.7643C26.2416 60.3135 7.60832 80.4931 1.44165 88.7643C8.64165 85.9642 28.775 83.2643 37.9417 82.2643L34.9417 114.764C49.7417 95.9643 79.9417 79.235 93.4417 73.0683L60.4417 62.2643M51.4417 45.7643L41.4417 25.7643C56.275 18.5976 89.9417 3.76426 125.942 1.76426C161.942 -0.235736 166.942 0.424939 179.442 1.76426C193.442 3.26426 222.042 8.46428 264.442 27.2643L253.942 45.2643M51.4417 45.7643L60.4417 62.2643M253.942 45.2643C264.608 52.0976 289.342 70.6643 302.942 90.2643C296.775 87.9309 280.842 83.2643 266.442 83.2643C267.608 91.9309 269.942 110.264 269.942 114.264C258.775 102.764 231.142 78.3643 209.942 72.7643L244.442 62.2643M253.942 45.2643L244.442 62.2643M244.442 62.2643C233.942 55.7643 201.842 42.3643 157.442 40.7643C113.042 39.1643 74.275 54.4309 60.4417 62.2643" stroke="black"/>
<path d="M60.4417 62.0683L94.4417 73.0683L97.4417 48.0683C82.9417 51.5683 66.4417 59.0683 60.4417 62.0683Z" fill="#B99DE1" stroke="black"/>
<path d="M243.442 62.0683L208.442 72.5683V48.5683C219.442 50.5683 239.442 59.0683 243.442 62.0683Z" fill="#B99DE1" stroke="black"/>
</svg>
