<svg width="150" height="150" viewBox="0 0 150 150" fill="none" xmlns="http://www.w3.org/2000/svg">
<circle cx="75" cy="75" r="75" fill="#FFE680"/>
<circle cx="75" cy="75" r="54.7297" fill="#FFCC00"/>
<circle cx="75" cy="75" r="34.4595" fill="#FFAA00"/>
<path d="M63.6487 80.2708C64.2451 85.869 68.737 90.222 74.1892 90.222C79.6414 90.222 84.1333 85.869 84.7298 80.2708H63.6487Z" fill="#1D1D1B"/>
<path d="M67.8661 80.2708V91.5486C67.8661 96.2917 70.7124 100.173 74.1906 100.173C77.6688 100.173 80.5151 96.2917 80.5151 91.5486V80.2708H67.8661Z" fill="#F06669"/>
<path d="M74.1906 93.1228C73.8796 93.1228 73.6259 92.7768 73.6259 92.3527V80.2708H74.7554V92.3527C74.7554 92.7768 74.5016 93.1228 74.1906 93.1228Z" fill="#C64F58"/>
<path d="M74.1907 100.173C77.6266 100.173 80.443 96.3868 80.5127 91.7216C76.4771 97.0755 72.1853 97.7574 69.6874 97.5844C70.8368 99.179 72.4341 100.173 74.1931 100.173H74.1907Z" fill="#E05F65"/>
<path d="M66.8406 66.6294C66.8406 69.1717 65.9451 71.2317 64.8393 71.2317C63.7334 71.2317 62.8379 69.1717 62.8379 66.6294C62.8379 64.087 63.7334 62.027 64.8393 62.027C65.9451 62.027 66.8406 64.087 66.8406 66.6294Z" fill="#1D1D1B"/>
<path d="M87.1219 68.1548C86.3539 65.5342 84.5182 63.8393 82.4499 63.8393C80.3816 63.8393 78.6065 65.482 77.8162 68.0244C77.6632 68.5111 77.7843 69.063 78.103 69.3629C78.4249 69.6628 78.8424 69.615 79.1228 69.2456C80.6302 67.2508 83.0108 65.6515 85.8057 69.3542C85.9619 69.5628 86.1658 69.6715 86.3698 69.6715C86.526 69.6715 86.6821 69.6106 86.8223 69.4803C87.1442 69.1891 87.2653 68.6415 87.1219 68.1504V68.1548Z" fill="#1D1D1B"/>
</svg>
